<svg id="Layer_1" data-name="Layer 1" xmlns="http://www.w3.org/2000/svg" viewBox="0 0 280 300"><defs><style>.cls-1{fill:#ea2a2d;}</style></defs><title>stranger things logo</title><path class="cls-1" d="M95.9,130.87A7.34,7.34,0,0,1,97,133.42l.59-.21-1.3-8a2.92,2.92,0,0,1-.81.44,3,3,0,0,1-.65.15l-.52,0H82.14l-.32,0a1.16,1.16,0,0,1-.44-.09,2.31,2.31,0,0,1-.64-.49l-1.4,8,.58.14a8.19,8.19,0,0,1,.76-1.9,5.71,5.71,0,0,1,1-1.41,6.72,6.72,0,0,1,1.81-1.31,4.67,4.67,0,0,1,2-.38v16.52a10.53,10.53,0,0,1-.08,1.48,1.93,1.93,0,0,1-.49,1,2,2,0,0,1-1.43.76l-.27,0V149H93.82v-.9a2.77,2.77,0,0,1-1-.17,1.77,1.77,0,0,1-.74-.69,2.83,2.83,0,0,1-.45-1.15,9.24,9.24,0,0,1-.11-1.46v-.46l0-15.78a4.83,4.83,0,0,1,2.46.61A6.55,6.55,0,0,1,95.9,130.87Z"/><path class="cls-1" d="M141.05,149v-.9a2,2,0,0,1-.75-.29,1.3,1.3,0,0,1-.45-.57,2.86,2.86,0,0,1-.23-.77,5.55,5.55,0,0,1-.07-1l0-15.51,8.91,12.5a9.87,9.87,0,0,1,1.05,1.71,4.63,4.63,0,0,1,.41,1.92c0,1-.32,1.65-1,1.9a1.43,1.43,0,0,1-.5.09v.9h5.86v-.9a1.7,1.7,0,0,1-.75-.27,1.42,1.42,0,0,1-.52-.59,2.64,2.64,0,0,1-.24-.86,7.62,7.62,0,0,1-.06-.87V130.06a12.46,12.46,0,0,1,.09-1.43,3,3,0,0,1,.43-1.3,1.32,1.32,0,0,1,.64-.56l.47-.09v-.9h-5.86v.9a2.63,2.63,0,0,1,.79.24,1.43,1.43,0,0,1,.56.56,2,2,0,0,1,.3.7,5.7,5.7,0,0,1,.06.95v5.52l-3.9-5.84a4,4,0,0,1-.28-.49,1.87,1.87,0,0,1-.17-.71.87.87,0,0,1,.13-.46,1.71,1.71,0,0,1,.29-.34.47.47,0,0,1,.34-.13v-.9H135.55v.9a1.69,1.69,0,0,1,1.13.65,2,2,0,0,1,.27.92,12.74,12.74,0,0,1,.08,1.41v14.77a11.22,11.22,0,0,1-.18,2.11,2,2,0,0,1-.54,1.21.61.61,0,0,1-.16-.12,2.25,2.25,0,0,1-.49-.68l-.21-.44-5-18.07c-.08-.28-.12-.43-.14-.47a2.17,2.17,0,0,1,0-.41.94.94,0,0,1,.07-.37.65.65,0,0,1,.64-.4v-1h-8.59v.88l.26.11a.74.74,0,0,1,.25.29,1.15,1.15,0,0,1,.13.55,2.05,2.05,0,0,1-.08.51c0,.18-.11.37-.18.55l-5.37,16.47a5.64,5.64,0,0,1-.49,1.19,2.39,2.39,0,0,1-.13.21c-.14-.34-.29-.73-.45-1.19a39.21,39.21,0,0,0-1.49-4c-.56-1.11-1.09-2.11-1.6-3s-1.11-1.85-1.8-2.88a4.37,4.37,0,0,0,1.13-.67,9.16,9.16,0,0,0,2.08-2,5.35,5.35,0,0,0,1.1-3.21,5.67,5.67,0,0,0,0-.6,3.18,3.18,0,0,0-1.37-2.41,6,6,0,0,0-3.46-.83H97.23v.9a1.37,1.37,0,0,1,.7.17,1.44,1.44,0,0,1,.52.64,5,5,0,0,1,.3,1.69c0,.26,0,.63,0,1.11l0,15.15a5.55,5.55,0,0,1-.12,1.28,1.69,1.69,0,0,1-.5.85,1.93,1.93,0,0,1-.5.38,1.13,1.13,0,0,1-.53.11v.9h9.26v-.9a3.48,3.48,0,0,1-.68-.21,1.83,1.83,0,0,1-.6-.63,1.93,1.93,0,0,1-.32-.82,6.64,6.64,0,0,1-.09-1.21v-6.54l1-.57,1.17,1.92a19.72,19.72,0,0,1,1,1.78c.88,1.89,1.42,3.08,1.61,3.59a5.39,5.39,0,0,1,.43,1.76.74.74,0,0,1-.23.63,2.22,2.22,0,0,1-1,.37V149h12.69v-.85a1.77,1.77,0,0,1-.66-.27,1.8,1.8,0,0,1-.53-.61,1.72,1.72,0,0,1-.1-.68,6.27,6.27,0,0,1,.26-1.83l1.37-4.7a8.06,8.06,0,0,1,1.68.22,6.2,6.2,0,0,1,1.54.49,7.4,7.4,0,0,1,2.43,2.18,5.33,5.33,0,0,1,1.15,2.42,5.08,5.08,0,0,1,0,.65,2.06,2.06,0,0,1-.78,1.8,2.48,2.48,0,0,1-.76.28v.9h14ZM108,134a7.63,7.63,0,0,1-2.6,1.76l-.68.25V130.2a3.37,3.37,0,0,1,.14-1,1,1,0,0,1,.52-.61,3.11,3.11,0,0,1,1.41-.33,2.72,2.72,0,0,1,1.83.61,2.34,2.34,0,0,1,.83,1.9A4.62,4.62,0,0,1,108,134Zm17.79,4.06a7.05,7.05,0,0,0-1.47-.72,4.42,4.42,0,0,0-1-.26l-.59,0,1.86-6.51,2.17,8.2A7.15,7.15,0,0,0,125.78,138.06Z"/><path class="cls-1" d="M189.73,149a3.22,3.22,0,0,1,.74.16l.66.23,2.52-8.87-.66-.39a8.44,8.44,0,0,1-1.55,3.17,9.86,9.86,0,0,1-2.27,2.29,7.57,7.57,0,0,1-1.76.86,5.74,5.74,0,0,1-1.87.32,3.62,3.62,0,0,1-1.48-.28,2.22,2.22,0,0,1-1-.87,3.55,3.55,0,0,1-.45-1.12,7.8,7.8,0,0,1-.09-1.29v-7.55H185a2.38,2.38,0,0,1,1.05.31,4.2,4.2,0,0,1,1.11.82,4.89,4.89,0,0,1,.87,1.39,5.16,5.16,0,0,1,.39,1.18l.74-.14-1.31-8.82-.58.21V131a2.42,2.42,0,0,1-.65,1.7,2,2,0,0,1-.69.45,2.36,2.36,0,0,1-.75.12h-2.72v-2.52a4.22,4.22,0,0,1,.16-1.25,1.88,1.88,0,0,1,.58-.9,2.75,2.75,0,0,1,1.92-.56,6.6,6.6,0,0,1,2.37.46,5.72,5.72,0,0,1,2.07,1.37,7.56,7.56,0,0,1,2,3.89l.64-.58-1.41-7.83a2.44,2.44,0,0,1-.53.2l-.52.09a8.8,8.8,0,0,1-1.65.18H174.9v.9a2.27,2.27,0,0,1,.66.08,1.14,1.14,0,0,1,.47.39,1.59,1.59,0,0,1,.28.63,7.05,7.05,0,0,1,0,.91v16.7a6.29,6.29,0,0,1-.08,1.17,2.31,2.31,0,0,1-.4.9,1.84,1.84,0,0,1-.4.4,2.76,2.76,0,0,1-.75.22V149h14.15A7.81,7.81,0,0,1,189.73,149Z"/><path class="cls-1" d="M172.92,138.6a6.44,6.44,0,0,1,.09-1.18,2,2,0,0,1,.4-.85,1.68,1.68,0,0,1,1.38-.79V135h-9.3v.86h.31a1.32,1.32,0,0,1,1,.51,1.52,1.52,0,0,1,.32.58,4.34,4.34,0,0,1,.09,1.08v5.53a4,4,0,0,1-.51,2.17,2.05,2.05,0,0,1-1.86.95q-2.83,0-4.58-3.38a13.56,13.56,0,0,1-1.49-6.37c0-.19,0-.34,0-.47s0-.25,0-.39a13.47,13.47,0,0,1,1.5-5.56,4.47,4.47,0,0,1,4-2.59,7.88,7.88,0,0,1,3.7,1.14,5.28,5.28,0,0,1,1.67,1.65,9.42,9.42,0,0,1,1.42,2.65l.48-.3-.79-8-.68.65A2,2,0,0,1,169,126a5.06,5.06,0,0,1-1.32-.19,24.73,24.73,0,0,0-2.48-.5,17.11,17.11,0,0,0-2.33-.15,12.35,12.35,0,0,0-4.21.69A8.74,8.74,0,0,0,155.3,128a10.29,10.29,0,0,0-1.77,2.53v11.71a13.43,13.43,0,0,0,1.13,2.12,9.57,9.57,0,0,0,4.37,3.75,15.38,15.38,0,0,0,5.57.83h9.7v-.88a2.38,2.38,0,0,1-.71-.31,1.43,1.43,0,0,1-.43-.59,2.65,2.65,0,0,1-.24-.81V138.6Z"/><path class="cls-1" d="M61.79,154.25a3.11,3.11,0,0,1,.49,0l4.26.7a23.36,23.36,0,0,0,3.76.35,18.54,18.54,0,0,0,5.64-.93,10.43,10.43,0,0,0,4.32-3.2,9.3,9.3,0,0,0,2.11-6.07A9.18,9.18,0,0,0,81,140a6.2,6.2,0,0,0-1.61-1.62,15.52,15.52,0,0,0-3.78-1.77c-1.5-.53-3-1.08-4.48-1.63a7.33,7.33,0,0,1-3-1.44,3.26,3.26,0,0,1,.23-4.41A4.53,4.53,0,0,1,70.51,128c2.6-.62,4.45.59,6.85,2.92a8.05,8.05,0,0,1,1.16,1.78l1.33-7.48c-.15.09-.79.51-1.06.72-.51.4-1.37-.11-1.88-.3a19.47,19.47,0,0,0-2.1-.63,18.91,18.91,0,0,0-4.37-.51,16.08,16.08,0,0,0-3.53.35,9.45,9.45,0,0,0-2.43,1c-2.37,1.36-3.5,3.78-4,6.37a7.88,7.88,0,0,0,.43,4.7,9,9,0,0,0,4.7,4.8l7.33,2.44a3.58,3.58,0,0,1,1.47,1.14,4.48,4.48,0,0,1-.84,5.54c-2.24,2-6.28,1.24-8.5-.43a7.78,7.78,0,0,1-2.37-3.67c0-.09-.58-1.61-.55-1.61H61.05l-.75,10.13c.16-.16.85-.6,1-.74A1.2,1.2,0,0,1,61.79,154.25Z"/><path class="cls-1" d="M212.9,141.6c-.66-1.14-1.42-2.37-2.3-3.69a5.87,5.87,0,0,0,1.44-.86,11.72,11.72,0,0,0,2.66-2.52,6.87,6.87,0,0,0,1.41-4.13c0-.16,0-.41-.05-.77a4.12,4.12,0,0,0-1.75-3.08,7.63,7.63,0,0,0-4.43-1.07H192.52v1.16a1.7,1.7,0,0,1,.89.22,1.85,1.85,0,0,1,.66.81,6.76,6.76,0,0,1,.38,2.17c0,.34,0,.81,0,1.42l0,19.43a7.11,7.11,0,0,1-.15,1.63,2.19,2.19,0,0,1-.65,1.1,3,3,0,0,1-.63.49,1.46,1.46,0,0,1-.68.14v1.15h11.83v-1.15a5.87,5.87,0,0,1-.87-.27,2.69,2.69,0,0,1-.77-.8,2.86,2.86,0,0,1-.4-1.06,8.23,8.23,0,0,1-.12-1.56V142l1.32-.74,1.5,2.46a26,26,0,0,1,1.25,2.29c1.13,2.41,1.81,3.95,2.06,4.6a6.86,6.86,0,0,1,.55,2.26.92.92,0,0,1-.3.8,2.54,2.54,0,0,1-1.22.47v1.07h12.51v-1a4.59,4.59,0,0,1-1.17-.38c-.43-.22-1-1.3-1.63-3.23a51.84,51.84,0,0,0-1.92-5.14Q213.88,143.31,212.9,141.6ZM206.26,136a9.85,9.85,0,0,1-3.32,2.26l-.87.32v-7.45a4.14,4.14,0,0,1,.18-1.29,1.34,1.34,0,0,1,.66-.79,4,4,0,0,1,1.81-.41,3.49,3.49,0,0,1,2.34.77,3,3,0,0,1,1.06,2.43A5.92,5.92,0,0,1,206.26,136Z"/><path class="cls-1" d="M102.33,153.18a2.89,2.89,0,0,1-.81.43,2.49,2.49,0,0,1-.65.16l-.52,0H88.14l-.32,0a1.21,1.21,0,0,1-.44-.09,2.31,2.31,0,0,1-.64-.49l-1.4,8.1.59.14a8,8,0,0,1,.75-1.91,6.17,6.17,0,0,1,1-1.43,7,7,0,0,1,1.81-1.32,4.85,4.85,0,0,1,2-.38V173a10.49,10.49,0,0,1-.08,1.49,1.9,1.9,0,0,1-.48,1,2,2,0,0,1-1.44.77l-.27,0v.89H99.82v-.91a2.52,2.52,0,0,1-1-.18,1.65,1.65,0,0,1-.75-.68,3,3,0,0,1-.45-1.17,9.37,9.37,0,0,1-.11-1.47V156.38a4.67,4.67,0,0,1,2.45.62,6.36,6.36,0,0,1,2,1.92,7.54,7.54,0,0,1,1.15,2.57l.58-.21Z"/><path class="cls-1" d="M115.19,155.67l.53.11a1.25,1.25,0,0,1,.66.43,2.78,2.78,0,0,1,.36.89,8.92,8.92,0,0,1,.11,1.69v2.09H111v-2.15a4.5,4.5,0,0,1,.6-2.49,1.11,1.11,0,0,1,.59-.45,2,2,0,0,1,.6-.12v-.88h-9.4v.88a3.08,3.08,0,0,1,.75.21,1.39,1.39,0,0,1,.52.53,1.72,1.72,0,0,1,.29.73,7.41,7.41,0,0,1,.06,1.11v.32l0,14.8a6.79,6.79,0,0,1-.19,1.57,2.63,2.63,0,0,1-.39,1,3,3,0,0,1-.52.44,2.66,2.66,0,0,1-.54.17v.86h9.32v-.88a1.58,1.58,0,0,1-1.32-.7,1.78,1.78,0,0,1-.34-.75,5.17,5.17,0,0,1-.07-1V163.18h5.79v11a4.48,4.48,0,0,1-.09,1,2.15,2.15,0,0,1-.32.76,1.54,1.54,0,0,1-1.31.68v.88h9.46v-.88a1.45,1.45,0,0,1-1.17-.5,1.8,1.8,0,0,1-.32-.82A5.79,5.79,0,0,1,123,174l0-15.38a8.15,8.15,0,0,1,.09-1.29,2.8,2.8,0,0,1,.36-1,1.25,1.25,0,0,1,.7-.59l.53-.11v-.88h-9.4Z"/><path class="cls-1" d="M125.62,155.67a3.89,3.89,0,0,1,.84.21.94.94,0,0,1,.45.38,2.37,2.37,0,0,1,.37,1,12.2,12.2,0,0,1,.08,1.54v15.28a4.61,4.61,0,0,1-.09,1,1.85,1.85,0,0,1-.34.74,1.56,1.56,0,0,1-1.31.75v.88h9.46v-.88a1.3,1.3,0,0,1-.66-.17,1.74,1.74,0,0,1-.51-.42,1.77,1.77,0,0,1-.32-.8,6.47,6.47,0,0,1-.11-1.21V158.74a10.16,10.16,0,0,1,.07-1.36,2.21,2.21,0,0,1,.34-1,1.5,1.5,0,0,1,.41-.47,2.48,2.48,0,0,1,.82-.28v-.88h-9.5Z"/><path class="cls-1" d="M153.68,175.72a2.59,2.59,0,0,1-.24-.84,7.17,7.17,0,0,1-.06-.85V159a11.81,11.81,0,0,1,.09-1.39,2.9,2.9,0,0,1,.44-1.28,1.28,1.28,0,0,1,.64-.54l.47-.09v-.88h-5.89v.88a2.43,2.43,0,0,1,.8.24,1.38,1.38,0,0,1,.56.54,2,2,0,0,1,.3.69,5.36,5.36,0,0,1,.06.93v5.39l-3.92-5.71a2.79,2.79,0,0,1-.27-.47,1.69,1.69,0,0,1-.18-.7.85.85,0,0,1,.14-.45,1.64,1.64,0,0,1,.28-.34.52.52,0,0,1,.34-.12v-.88H136.09v.88a1.75,1.75,0,0,1,1.13.63,1.92,1.92,0,0,1,.27.91,10.05,10.05,0,0,1,.08,1.38V173a11.71,11.71,0,0,1-.17,2.07,1.88,1.88,0,0,1-.59,1.21,1.29,1.29,0,0,1-.37.19l-.5.08v.88h5.67v-.88a2,2,0,0,1-.75-.28,1.26,1.26,0,0,1-.45-.56,3.28,3.28,0,0,1-.24-.75,6.65,6.65,0,0,1-.06-1l0-15.15,9,12.21a9.87,9.87,0,0,1,1,1.67,4.45,4.45,0,0,1,.41,1.88c0,1-.32,1.61-1,1.85a1.52,1.52,0,0,1-.51.09v.88H155v-.88a1.82,1.82,0,0,1-.75-.26A1.48,1.48,0,0,1,153.68,175.72Z"/><path class="cls-1" d="M189.55,164l-4.68-1.74a4.16,4.16,0,0,1-1.81-1.18,2.11,2.11,0,0,1-.47-1.34,3.31,3.31,0,0,1,.14-1,3.55,3.55,0,0,1,.25-.63,1.78,1.78,0,0,1,.84-.87,2.93,2.93,0,0,1,1.33-.28,5.21,5.21,0,0,1,1.83.36,6.32,6.32,0,0,1,1.69.95,6.51,6.51,0,0,1,1.7,2.42,4.71,4.71,0,0,1,.39,1l.7-.25-.66-7.35a6,6,0,0,0-.55.36,4.63,4.63,0,0,1-.89.41,1,1,0,0,1-.22,0l-2.57-.59a9.72,9.72,0,0,0-2.26-.29,7,7,0,0,0-1.48.15,9.23,9.23,0,0,0-4.66,2.52,6.93,6.93,0,0,0-2,5,5.94,5.94,0,0,0,1.13,3.67,6.3,6.3,0,0,0,2.88,2.08l5.15,2a2.34,2.34,0,0,1,1.12.89,2.56,2.56,0,0,1,.42,1.46,2.91,2.91,0,0,1,0,.57,3.08,3.08,0,0,1-1.29,2.1,4.23,4.23,0,0,1-2.53.75,6.37,6.37,0,0,1-2.76-.68,6.94,6.94,0,0,1-2.44-2,10.18,10.18,0,0,1-1.76-4.25l-.7.09.76,9.37.44-.35a1.08,1.08,0,0,1,.39-.21,2.42,2.42,0,0,1,.42,0l3.62.54a21.67,21.67,0,0,0,3.2.28,10.76,10.76,0,0,0,3.72-.73,9.41,9.41,0,0,0,3.82-2.49,7.44,7.44,0,0,0,.72-8.6A5.91,5.91,0,0,0,189.55,164Z"/><path class="cls-1" d="M174,175.66a2.37,2.37,0,0,1-.23-.81v-7.77a6.48,6.48,0,0,1,.08-1.18,1.9,1.9,0,0,1,.4-.85,1.68,1.68,0,0,1,1.38-.79v-.79h-9.3v.86h.31a1.32,1.32,0,0,1,1,.51,1.52,1.52,0,0,1,.32.58,4.34,4.34,0,0,1,.09,1.08V172a4,4,0,0,1-.51,2.17,2.05,2.05,0,0,1-1.86,1c-1.89,0-3.41-1.13-4.58-3.38a13.56,13.56,0,0,1-1.49-6.37c0-.19,0-.34,0-.47a2.77,2.77,0,0,1,0-.39,13.33,13.33,0,0,1,1.49-5.56,4.47,4.47,0,0,1,4-2.59,7.88,7.88,0,0,1,3.7,1.14,5.28,5.28,0,0,1,1.67,1.65,9.42,9.42,0,0,1,1.42,2.65l.49-.3-.8-8-.68.65a2,2,0,0,1-1.11.28,5.06,5.06,0,0,1-1.32-.19,24.18,24.18,0,0,0-2.48-.5,17,17,0,0,0-2.33-.15,12.35,12.35,0,0,0-4.21.69,8.74,8.74,0,0,0-3.38,2.16A10.29,10.29,0,0,0,154.4,159v11.71a12.91,12.91,0,0,0,1.13,2.11,9.54,9.54,0,0,0,4.37,3.76,15.38,15.38,0,0,0,5.57.83h9.7v-.88a2.2,2.2,0,0,1-.7-.31A1.36,1.36,0,0,1,174,175.66Z"/><rect class="cls-1" x="60.3" y="158.55" width="23.38" height="2.12"/><rect class="cls-1" x="192.55" y="158.55" width="27.16" height="2.12"/><rect class="cls-1" x="60.3" y="120.32" width="156.02" height="1.92"/></svg>