<?xml version="1.0" encoding="utf-8"?>
<!-- Generator: Adobe Illustrator 24.3.0, SVG Export Plug-In . SVG Version: 6.00 Build 0)  -->
<svg version="1.0" id="Layer_1" xmlns="http://www.w3.org/2000/svg" xmlns:xlink="http://www.w3.org/1999/xlink" x="0px" y="0px"
	 viewBox="0 0 1322.67 954.67" style="enable-background:new 0 0 1322.67 954.67;" xml:space="preserve">
<style type="text/css">
	.st0{fill:none;}
</style>
<g>
	<path d="M1106.73,466.23c0.1,0,0.2-0.1,0.3-0.2c0.1-0.1,0.2-0.2,0.4-0.5c-0.3-4-0.7-8.2-1.1-12.6c-5.7,0-11,0-16.4,0
		s-10.7,0-16.1,0c-5.2,0-10.5,0.1-15.7-0.4c26.6-5.9,42.1-38.1,35.1-63.1c-3.8-13.5-11.4-24.4-23.2-31.9c-15-9.6-31.1-10.6-47.6-4.8
		c-4.2-3.5-9.9-12.5-12.7-20.1c1.6-2.2,3.9-3.9,6-5.9c2.5-2.4,4.2-5,3.2-8.8c-0.8-0.4-1.5-0.9-2.2-1.2c-4.6-2-9.4-2.1-14.2-1
		c-3.2,0.8-5-0.3-6.7-3c-5.4-8.4-4.5-13.5,3.7-19.1c1.9-1.3,4-2.5,5.8-3.9c1.9-1.5,3.1-3.3,3-6c-0.8-14.1-1.6-28.3-2.3-42.4
		c-0.1-1.3-0.4-2.6-0.7-4.1c-8.4,1.3-14,7.5-21.6,10c-0.6-1.6-1.3-2.9-1.4-4.2c-0.1-3-1.9-5.1-3.9-7c-1.3-1.2-2.7-2.4-4.1-3.4
		c-5.4-3.8-8.7-4.1-13.8-0.1c-8.6,6.8-25,4.4-32.3-3.2c-6.3-6.6-9.3-14.7-11.8-23.4c2.2-2.1,4.3-4.1,6.4-6c3.2-2.7,5-6.1,5.7-10.2
		c0.9-4.9,1.6-9.8,2.8-14.6c0.7-2.6-0.2-4.1-2.1-5.6c-5.7-4.3-12-7.1-18.9-8.8c-1.6-0.4-3.6-0.2-5.2,0.3c-9.1,3-15.8,8.7-19,18
		c-0.9,2.6-1.5,5.3-1.9,8c-1.2,7.7-3.8,14.4-11.3,18c-4.7,2.2-7.9,5.8-10.3,10.3c-0.7,1.4-1.8,2.6-2.7,3.9c-3.8-0.6-6.6-2-8-5.9
		c1.8-0.7,3.4-1.5,5-2c2.2-0.6,3.5-1.9,4.3-4c2.1-5.3,3.9-10.6,4.4-16.2c0.6-7.1-0.4-13.8-6.2-18.8c-4.9-4.2-10.5-5.1-16.6-3.1
		c-6,2-9.6,6.1-10.7,12.4c-0.8,4.5,0.1,8.7,1.6,12.9c0.9,2.7,1.6,5.5,2.3,8.3c0.7,2.7,0.1,4.9-1.9,7.1c-5,5.6-8.8,11.9-10.5,19.4
		c-3.2,14.3-6.6,28.7-7.4,43.4c-0.8,13-0.1,25.8,7.1,37.4c1.9,3,2.7,6.7,2.2,10.3c-0.6,4.5,0,8.8,1.7,12.9c1.9,4.5,4.1,8.9,6.4,13.6
		c0.9-1.6,1.7-2.9,2.3-4c5.8-0.3,11.4,1.8,14.3,5.6c-1.2,0.1-2.3,0.2-3.3,0.3c-5.3,0.5-10.7,0.6-16,1.5c-30.1,4.7-49.7,34-42.7,63.7
		c4.2,17.8,14.7,30.3,32.2,37.5c-6.6,0.9-161.2,0.6-164.4-0.4c0.9-0.2,1.4-0.3,1.9-0.5c19.3-5.5,30.1-21.2,30.3-41.3
		c0.2-13.6-5.5-25.1-16.3-33.7c-7.1-5.7-15-9.7-24.5-9.1c-3.3,0.2-6.6,0.5-9.9,0.8c-3,0.2-5.9,0.3-9.1,0.5
		c-2.4-9.9-4.8-19.3-7.1-28.7c2.5-1.2,4.6-2.2,6.9-3.4c-0.4-1.9-0.9-3.6-1.2-5.3c-2.3-10.4-4.9-20.8-6.9-31.4
		c-0.9-4.7-2.2-8.1-6.5-10.9c-5.4-3.5-10.7-6.1-17.2-5.4c-6,0.6-11.3-1.5-16.2-4.8c-7-4.7-12.9-10.6-19-16.5
		c-1.5-1.5-2.5-3.6-3.3-5.6c-1.5-3.7-0.5-5.5,3.4-6.2c2.6-0.5,4.1-1.9,5.1-4.2c2-4.9,3-10,2.2-15.3c-0.5-3.1-0.9-6.3-1.2-9.4
		c-0.2-2.4-1.2-4.2-3.2-5.5c-1.7-1.1-3.5-2.1-5.4-2.9c-5.2-2-10.2-1.2-15,1.5c-4.1,2.2-4.8,6-5.1,10.2c-0.1,2.4-1.4,4.1-3.4,5.4
		c-1,0.6-2,1.3-3.4,2.3c1.5,0.6,2.6,0.8,3.4,1.3c1.2,0.7,2.4,1.4,3.2,2.4c1.5,1.8,1.3,3.1-0.6,4.5c-2.7,1.9-5.7,2.6-9,2.1
		c-2.4-0.4-4.9-0.6-7.4-0.8c-2-0.1-3.8,0.4-4.7,2.5c-0.9,2-2.6,3.1-4.5,4.1c-7.9,4.1-14.1,10-19,17.3c-2.8,4.1-4.7,8.7-5.4,13.7
		c-0.9,6.3,1,13.4,8.9,16.2c1.8,0.6,3.5,1.7,5.3,2.3c4,1.4,5.9,3.9,5.5,8.4c-0.5,6.2,1.8,11.6,5.7,16.3c1.4,1.7,3,3.2,4.5,4.9
		c1,1.1,2.2,2.2,1.5,4.1c-1.7,1.4-3.7,2-6,2.1c-1.4,0.1-2.8,0.1-4.1,0.3c-4.9,0.7-9.5-0.1-13.9-2.5c-1.4-0.8-3-1.4-4.5-2
		c-4.3-1.4-8.6-1.4-13,0c-1.7,0.6-2.4,1.5-2.2,3.4c0.4,3.1,1.4,5.9,4.2,7.7c3.6,2.3,5.5,5.7,6.3,9.8c0.9,5,1.6,10,2.2,15.1
		c0.1,1-0.1,2.1-0.2,3.3c-4,0.7-7.7,1.4-11.6,2.1c-0.4-0.5-0.7-1-1.1-1.4c-8.7-11.5-20.3-17.3-34.7-17.6c-4.4-0.1-8.8,0.4-13.2,0.6
		c-3.7,0.1-7.4,0.8-10.8-0.6c-2.4-6.4-7.6-29.9-7.3-33.2c2.2,0.2,4.4,0.4,7.1,0.6c-0.2-1.4-0.2-2.5-0.5-3.5c-1.3-4.2-2.6-8.4-4-12.5
		c-1.6-4.6-2.3-9.3-2.1-14.2c0.2-4.6-2.1-8.2-4.8-11.5c-2-2.4-5.1-1.4-7.8-1.7c-4.1-0.4-8.2-0.8-12.1-1.2c-1.4-2.6-2.5-5-4-7.1
		c-1.2-1.8-2.7-3.6-4.5-4.6c-8.7-4.6-15.1-11.8-21.3-19.2c-3.3-4-4.7-8.5-3.7-13.8c0.4-2.2,0.1-4.6,0.1-7c0-1.1-0.1-2.1-0.2-3.3
		c2.5-1,4.7-1.9,7-2.8c0.7-4.2,1.3-8.1,2.1-12c0.6-2.8,0.5-5.3-1.1-7.9c-1-1.6-1.4-3.6-1.9-5.4c-1.1-3.9,0.1-7,3.1-9.6
		c1.6-1.3,3.3-2.5,4.8-3.9c1.2-1.1,2.6-2.1,2.3-4.3c-0.9,0.1-1.9-0.1-2.7,0.2c-6.7,2.1-13,1.7-18.5-3.3c-1.3-1.2-3-1.5-4.7-1
		c-4.9,1.3-9.8,2.8-14.1,5.6c-3.9,2.5-6.5,6-7.1,10.6c-0.3,2-0.6,4.2-0.1,6.1c1.1,4.3-0.1,7.4-3.5,10c-1.1,0.8-1.8,2-2.7,3
		c1,4.5,2,8.8,3,13.3c-2.8,3.7-6.6,6-11.1,7.3c-3.7,1-7.4,2-11.1,3.1c-5,1.5-8.4,4.8-10.9,9.4c-1.9,3.6-4.5,6.9-7,10.1
		c-3.1,3.9-6.6,7.4-9.7,11.2c-3.8,4.7-7.2,9.8-8.9,15.7c-2.2,7.7-0.2,13.9,6.6,18.2c2.8,1.9,6,3.3,9.3,4.4c2.7,0.9,3.7,2.5,4.1,5
		c0.5,3.4,1.2,6.8,1.7,10.2c0.4,3.1,2,5.2,4.8,6.7c2.4,1.3,4.5,3,6.9,4.6c-0.9,1-1.3,1.9-1.9,2.2c-2,0.9-4,1.8-6.1,2.3
		c-3.5,0.9-4.9,2.4-5,6.5c6.4,3.9,13,0.5,19.4,0.1c0.4,0.5,0.7,0.8,0.8,1.2c2.2,6.6,4.4,13.3,6.4,20c0.3,0.9,0.2,2.4-0.4,3.1
		c-3,3.5-6.1,7-10.7,9.3c-2.6-1.9-5.2-3.7-7.7-5.6c-5.9-4.7-12.5-8-19.9-9.4c-6-1.1-12-1.3-18-0.5c-18.9,2.7-32.2,12.6-39.6,30.2
		c-4,9.5-4.8,19.3-3.4,29.5c2.4,17.2,13.3,33.1,32.1,38.5c2.2,0.6,4.4,1.3,6.6,2c0,0.3,0,0.5-0.1,0.8c-15.7,0-31.5,0-47.4,0
		c-0.2,4.4-0.4,8.4-0.6,12.5c0.8,0.1,1.5,0.2,2.1,0.2C501.43,466.33,804.13,466.33,1106.73,466.23z M1037.23,364.33
		c20-2.3,38.5,12.2,42.2,29.8c5.5,26-15.3,43.6-31.4,46.6c-16.2,3-41-8.1-44.4-33.4c-0.8-6-0.7-11.8,1.1-17.5
		c1.3-4.1,3.4-7.8,7.4-10.7c10.4,8.4,19.8,17.4,27.1,28.6c2.2,0,4.5,0,7,0c0.9-6.9-0.3-13-3.8-18.7c-4.1-6.8-8-13.8-12-20.7
		c-0.2-0.3-0.2-0.8-0.4-1.4C1032.13,365.03,1034.73,364.63,1037.23,364.33z M1036.23,393.43c2.9-0.7,3.5,0,4,4.3
		C1037.03,397.53,1036.53,395.63,1036.23,393.43z M1025.73,368.23c3,5.4,6,10.7,9,16.1c-1.1,1.4-2.2,2.6-3.2,3.8
		c-3.9-1.7-10.1-7.8-14-13.9C1018.83,370.43,1022.03,369.33,1025.73,368.23z M1005.93,335.13c5.5,5.8,8.9,12.4,11.5,20
		c-2.7,1.3-4.8,2.4-6.9,3.5C1005.43,352.63,1003.63,343.53,1005.93,335.13z M995.13,332.33c2,2.6,1.8,5.3-1.5,6.5
		c-4.7,1.8-9.4,3.9-13.9,6c-3.8,1.8-7.7,2.1-11.6,1.3c-4.4-0.9-8.7-2.2-13.1-3.4c-0.3-0.1-0.6-0.5-1-0.8c1.7-5.6,5-9.4,11.1-9.9
		c8.4-0.7,16.9-1.2,25.4-1.7C992.33,330.23,994.03,330.83,995.13,332.33z M968.53,350.03c-1,1.4-1.9,2.9-2.9,4.3
		c-4.9,6.6-9.7,13.3-14.7,19.9c-2.6,3.4-5.5,6.4-10.1,8.6c0.4-13.5,1.9-26.3,6.8-38.4C952.83,344.33,964.83,347.53,968.53,350.03z
		 M1001.53,252.43c2.3,3.1,2.8,7,3,10.7c0.3,7.4,0,14.8-0.1,22.2c0,0.4-0.3,0.8-0.6,1.6c-3.6-0.3-6.9-1.1-10-2.6
		c-2.2-1.1-3.7-3-4.3-5.3c-1.1-4.4-2.1-8.8-3-13.2c-0.5-2.5-0.6-5.1-0.9-7.3C991.13,256.33,996.23,254.43,1001.53,252.43z
		 M967.83,237.53c5.9-3.3,9.6-1.5,10.8,5.2c0.1,0.6,0.1,1.3,0.1,2.5c-5.7,0.7-10.6-0.2-15.2-2.8
		C963.83,239.43,965.93,238.53,967.83,237.53z M943.23,259.53c6.5,0.7,13.1,1.3,19.7,1.3c6.4,0,12.9-0.6,19.7-0.1
		c0.8,4.1,1.6,8.1,2.3,12.1c0.4,1.9,0.7,3.8,1,5.7c0.7,3.4,2,6.4,4.7,8.9c3,2.7,3.4,4.4,1.5,7.6c-5.2,9-4.2,18.1-0.7,27.3
		c0.2,0.6,0.5,1.3,0.7,1.9c0.1,0.2,0,0.5-0.1,1.2c-7.3,1.2-14.8,1.5-22.5,1.8c-0.8-3.6-0.4-6.9,0-10.1c0.3-2.7-0.5-4.4-2.5-6
		c-5-3.9-10.5-7-16.4-9.4c-3.2-1.3-6.3-2.6-9.5-4c-4.1-1.8-7.3-4.7-8.6-8.9c-3.2-10.3-6.1-20.7-9.3-31.9
		C930.63,257.23,936.83,258.83,943.23,259.53z M924.63,405.13c0.2-1.2,0.8-2.6,1.7-3.5c0.3-0.4,2.1-0.2,2.5,0.3
		c0.8,1,1.6,2.5,1.4,3.6c-1.3,6.3-5.7,10.3-12.3,9.3c-7.1-1.1-11.9-7.2-11.1-14.8c1.7-0.2,3.6-0.4,5.8-0.6c0.2,2.9,0.4,5.4,0.6,8.1
		c4,1,7.8,1.7,12.1,1.2C925.03,407.43,924.53,406.23,924.63,405.13z M926.33,331.73c-3.6,1.9-7.4,2.5-11.2,3.6
		c-0.7,0.2-1.8-0.5-2.6-1c-4-3.1-6.6-7.2-7.5-12.6C911.13,321.83,922.03,327.03,926.33,331.73z M902.43,402.53
		c1,3.1,1.8,6.3,3.1,9.3c2.7,5.8,7.5,8,13.7,7.9c2.9-0.1,5.4-1.1,7.6-2.9c2.1-1.7,4.1-3.6,5.9-5.7c1.6-1.9,3.3-2.8,5.8-1.9
		c0.9,0.3,1.9,0.3,2.8,0.6c1.9,0.5,3.5,0.2,4.9-1.3c1.5-1.5,3.3-2.4,5.5-2.3c0.9,0,1.9-0.2,2.8-0.6c2.2-1,2.7-3.3,0.9-5
		c-1-1-2.5-1.7-3.8-2.3c-2-0.9-4.1-1.6-6.1-2.4c-1.8-0.8-3.3-1.9-4-4.1c0.5-0.5,0.9-1,1.5-1.3c5.6-3.2,9.9-7.8,13.7-12.9
		c2.8-3.8,5.3-7.7,8.1-11.4c6-7.9,13.2-14.3,22.7-17.8c8.5-3.1,10-2.6,14.6,5.2c1.6,2.7,2.8,5.6,4.3,8.4c-2.4,2.8-4.3,5-6.1,7.2
		c-7,8.7-11.2,18.7-12,29.7c-1.1,14.2,3.4,26.8,12.2,37.9c5.5,6.8,12.2,11.9,20.6,14.3c1.6,0.4,3.1,0.8,4.7,1.6
		c-55.4,0-110.9,0-167.1,0c1-0.8,1.3-1.4,1.8-1.5c16.8-4.7,25.1-17.2,30-32.8c1.7-5.4,2.7-10.9,2.8-16.6c0-1.3,0.3-2.7,0.6-4.5
		c2.3,0.4,4.3,0.6,6.2,1.2C902.03,399.03,901.93,400.93,902.43,402.53z M885.43,373.23c1.4-1,2.4-0.8,3,0.6c0.1,0.3-0.4,1.4-0.8,1.5
		C885.93,375.73,885.73,374.43,885.43,373.23z M898.03,386.23c-2.1,0.5-3.8,0.9-5.9,1.3c-0.8-2.4-1.5-4.5-2.3-7.2
		C893.73,381.13,896.03,382.83,898.03,386.23z M874.63,355.53c5.1-2.1,10.1-4.2,15.2-6.3c1.6-0.7,3.1-0.9,4.6,1.2
		c-1.1,0.9-2.1,1.8-3.2,2.4c-4.1,2.2-8.2,4.4-12.4,6.5c-2.7,1.4-3.5,1.2-6.5-0.4C872.13,357.13,873.13,356.13,874.63,355.53z
		 M872.63,381.63c2,2.2,3.2,4.7,2.4,8.3c-5.1,0.4-10,0.7-15.8,1.1C862.73,385.73,867.03,383.03,872.63,381.63z M855.63,368.83
		c1.6-1.4,3.3,0,5.3,1.1c-2.7,5-7,7.3-12.1,9C849.83,374.63,852.53,371.53,855.63,368.83z M801.73,400.73c1.7-15,8.8-26.7,22.7-33.6
		c3.3-1.7,7-2.6,11-1.1c0.7,3.6-0.7,6.4-3.1,8.8c-2.8,2.7-5.2,5.6-6.5,9.6c2.3,5.3,8.1,7.5,11.8,11.9c-0.8,1.7-1.5,3-2.2,4.4
		c-0.7,1.3-1.4,2.7-2.2,4.4c3,2.7,5.9,5.3,8.8,8c3.4-1.6,6.5-3.1,9.8-4.7c1.5,4,4.8,4.9,8.1,5.9c2,0.6,3.8,1.7,5.6,2.5
		c1.9,0.9,3.8,1.6,6,0.9c1.8-3.4,0.9-6.6-1-9.6c-1.6-2.5-3.2-5-5.2-8.2c4.7-0.9,8.7-1.8,13.1-2.6c0.9,5.4,0.3,10.2-0.9,15
		c-5.4,22.4-27.4,31.6-45.7,27.7C813.63,436.23,799.93,416.73,801.73,400.73z M630.03,389.33c1.2,4.2,2.1,8.5,3.4,12.7
		c0.9,3.1,2.1,6.2,3.5,9.2c1.1,2.4,3.4,3.9,6,4.7c3.8,1.2,7.2-0.8,7.7-4.8c0.2-1.5,0-3,0-4.3c-2.3-2-4.6-2.5-7.1-2.8
		c-4.7-0.6-5.8-1.5-6.9-6.2c-1-4.3-1.8-8.6-2.8-12.9c-0.4-1.8,0.3-2.8,1.9-3.6c4.1-2.2,8.5-1.9,12.9-1.4c17,1.9,32.4,22.1,23.9,41.4
		c-5,11.2-17.2,18.9-29.7,18.7c-11-0.2-22.6-8.5-26.7-19.6c-3.8-10.4-2-20.3,4.6-29.2c1.8-2.4,4.1-4.4,7.5-5.5
		C628.93,386.93,629.73,388.03,630.03,389.33z M605.23,294.53c0.8,1.1,0.1,2-1.2,2.8c-1.9-0.3-3.1-1.5-4-3.9
		C602.33,292.83,604.03,292.93,605.23,294.53z M557.43,293.13c0.1-1.3,0.7-2.6,1.2-4.3c1.8,0.1,3.4-0.1,4.9,0.3
		c3.4,0.9,6.9,1.9,10.2,3.2c8.6,3.6,17.1,7.4,25.6,11.3c4.1,1.9,8,2.7,12.2,0.7c1.8-0.9,3.9-1.2,6-1.9c0.4,1.2,0.9,2,1,2.9
		c0.9,6.2,1.7,12.5,2.8,18.7c0.5,2.7,0,4.6-2.4,5.9c-0.5,0.3-0.8,0.7-1.3,1c-2.9,1.7-3.7,4.1-2.9,7.3c0.5,2.1,0.6,4.3,1,7
		c-14,4.5-27.9,8.2-42.2,9.8c-0.5-3.3,0-4.7,2.3-6c1-0.5,2-1,3-1.2c5.5-1.5,8.8-5.3,10.8-10.5c-1-2.9-3.2-4.8-5.3-6.7
		c-6.2-5.9-13.2-10.8-20.8-14.7c-3.4-1.8-6.7-3.7-9.3-7.2C557.63,304.03,557.03,298.53,557.43,293.13z M617.03,350.93
		c-0.4,2.4-1.9,3.9-3.4,5.1c-3.8,3-7.5,6-11.5,8.7c-9.4,6.4-19,12.6-28.5,18.8c-3.3,2.2-6.8,4.1-10.3,6c-0.9,0.5-1.9,0.7-3.2,1.2
		c-0.3-3,0.5-5.5,1.4-7.9c2.1-5.7,4.3-11.3,6.6-16.8c1.3-3.2,4-4.8,7.2-5.6c11.3-2.9,22.6-5.7,33.9-8.5
		C611.73,351.23,614.23,350.43,617.03,350.93z M551.13,430.23c3.7,0,7.1,0,10.5,0c0.2-0.1,0.6-0.2,0.7-0.4c2.8-4.4,7.1-5.7,11.9-6.1
		c1.4-0.1,2.7-0.4,4.1-0.7c2.7-0.6,2.7-0.6,2.7-4.1c-2.4-2-5.6-1.7-8.5-2.4c-2.9-0.8-5.9-1.4-8.6-2.5c-7.7-3-7.6-12.8-1.5-17
		c6.4-4.3,12.7-8.7,19-13c10.9-7.5,21.7-14.9,32.6-22.4c1.9-1.3,3.8-2.1,6.5-2c0.7,1.6,1.5,3.3,2.2,5c0.7,1.8,1.3,3.6,2,5.4
		c-4.4,3.7-8.7,6.9-12.4,10.7c-9.3,9.2-12.5,20.6-11.3,33.5c0.8,8.8,4.3,16.4,9.6,23.3c4.8,6.3,11,10.6,18.6,13
		c0.8,0.2,1.6,0.5,2.3,0.8c0.1,0,0.1,0.2,0.5,0.9c-1.9,0-3.5,0-5.1,0c-23.6,0-47.3-0.1-70.9,0c-16.2,0.1-32.4,0.3-48.6,0.5
		c-1.4,0-2.7,0-4.3-0.5c0.9-0.4,1.7-0.9,2.7-1.1c6.9-1.4,12.2-5.4,16.9-10.4c5.3-5.7,8.9-12.5,10.7-20.1c0.3-1.5,0.7-2.9,1-4.4
		c0.3-1.7,1.2-2.7,3.3-2.7c2.6,2.2,2.7,5.4,2.7,8.6C543.43,425.33,549.03,425.53,551.13,430.23z M525.33,381.23
		c2.5-1,4.1,0.2,5.2,2.1c2.2,4.1,4.4,8.2,6.4,12.4c1.2,2.5,1,2.7-2.1,5.4c-1.6-3.4-3.2-6.6-4.6-9.9
		C528.73,387.83,525.63,385.33,525.33,381.23z M548.43,370.93c-0.2,2.2-0.8,4.2-2.3,6.1c-2.3-1.3-3.3-3.2-4.1-5.3
		c-0.5-1.2-0.6-2.7,0.7-3.3c1-0.5,2.3-0.7,3.4-0.5C547.53,368.23,548.53,369.33,548.43,370.93z M541.33,344.03
		c1.9-0.9,3.1,0,4.2,2.2c-1,0.8-1.8,1.4-3.2,2.5c-0.9-1-1.7-1.8-2.6-2.8C540.43,345.03,540.83,344.33,541.33,344.03z M541.63,395.53
		c-2.5-4.6-4.7-8.5-6.9-12.5C539.93,382.53,543.83,388.93,541.63,395.53z M492.63,351.83c3,3.5-0.4,8.4,2.7,12.8
		c0.2-1.9,0.3-3.1,0.5-4.3c0.1-1.2,0.3-2.5,0.3-3.7c0.1-6.1-1.3-6.4,6.5-9.5c7.3-2.9,15-3,22.7-2.3c1.9,0.2,3.8,0.5,6.1,0.9
		c0.2,3,0.3,6,0.5,9.1c-4.2,1.6-8.1,3.1-12.5,4.8c0.2,1,0.1,2.1,0.5,3.1c0.9,2.3,2,4.5,2.9,6.8c1.6,3.9,1.6,5.4,0.2,9.8
		c-0.8-0.3-1.8-0.5-2.5-0.9c-2.8-1.7-5.7-3.4-8.4-5.1c-4.2-2.7-8.8-4.3-13.9-4.7c-2.2-0.1-4.3-0.6-7.4-1c-0.5-3.8-1.2-7.6-1.4-11.4
		C489.43,353.43,489.73,353.23,492.63,351.83z M520.93,405.93c-7.1,3.2-15.1,3.5-20.4,0.7c2.5-6.8,7.8-10.8,13.8-14.5
		C519.53,396.43,521.53,400.83,520.93,405.93z M487.03,382.73c1.9,0,2.5,1.4,2.8,2.9c0.3,1.4,0.7,2.8,1.1,4.7c2.9-2.1,5.6-3.5,6.1-7
		c5.8-0.3,10.6,1.2,14.6,5.8c-4.2,5.9-9.7,9.3-16.1,11.9c-1.5-1.9-2.8-3.6-4.3-5.5c-2.4,2.9,0.1,6.8-2.7,9.1
		C486.23,399.13,485.33,386.03,487.03,382.73z M486.53,415.73c1.7,0.3,3.1,0.6,4.6,0.9c4,0.9,7.8,0.7,11.4-1.8
		c4.7-3.2,10.4-4.6,19.1-4.1c0.9,3.8,0.3,7.5-1.1,11.2c-4.7,12.6-18.6,21.4-32,20c-4.8-0.5-9.2-2.3-12.9-6.1
		C479.43,429.03,482.83,422.53,486.53,415.73z M483.83,452.53c-13.3,0-26.5,0-39.8,0c-0.1-0.1-0.1-0.2-0.2-0.3c3.8-1,7.7-1.8,11.5-3
		c2.8-0.9,5.5-2.4,8.2-3.7c1.6-0.8,3.1-1.3,4.7-0.3C473.13,448.23,478.23,450.93,483.83,452.53z M470.63,392.33
		c4.9,6.4,1.7,24-5.3,30.4C460.23,416.63,461.73,398.43,470.63,392.33z M416.93,374.13c2.7,6.3,5,12.8,6.2,19.6
		c1,5.6,4.3,9.8,9.3,12.4c2.6,1.4,5.5,2.4,8.5,3.7c1.7-3.8,3.1-7.3,2.3-11.3c-0.5-2.3-1.6-3.9-4.2-4.4c-3.2-0.7-6.3-1.8-9.8-2.8
		c-0.5-8.2-4.9-15.3-7.5-23.4c2.3-0.6,4.2-1.2,6.2-1.5c7.5-1.1,15.1-1.1,22.4,1.2c5.8,1.9,10.6,5,13.4,10.7c-2,3.2-3.9,6.2-5.8,9.2
		c-4.3,6.9-6.7,14.4-7.3,22.5c-0.3,4.9,0.6,9.6,2.3,14.1c0.9,2.4,1.9,4.8,2.9,7.2c-13.4,9.6-36.7,7.2-49.2-8.9
		c-9.8-12.6-10.8-36.1,9-50.8C416.03,372.53,416.53,373.23,416.93,374.13z M334.43,276.23c0.8-3.1,2-5.9,4.3-8.3
		c2.5-0.1,4.6,1.1,6.5,2.3c6.4,4.1,13.4,6.8,20.9,8.5c7,1.6,13.7,4,19.7,8.1c1.1,0.8,2.4,1.2,3.6,1.9c3.1,1.8,5.8,1.9,8.4-1.1
		c1.3-1.5,3.4-2.2,5.9-2.4c2.5,8.1,4.2,16.4,5.7,25.1c-3.7,1.6-7.3,3.2-11.3,5c1.3,2.9,2.4,5.4,3.5,7.9c-5.1,5-33.9,14.3-46.7,15.2
		c-1.7-2.8-0.4-5,1.4-7.3c5.7-7.5,11.4-15.2,16.8-22.9c1.4-2,2.2-4.4,2.9-6.7c1.1-3.8,0.1-6.5-3.4-8.4c-3-1.6-6.3-2.8-9.6-3.7
		c-5-1.3-10.2-2-15.2-3.4c-3.9-1.1-7.8-2.7-11.4-4.5C333.53,280.13,333.63,279.43,334.43,276.23z M405.13,332.93
		c-1.5,2.5-3.5,4-5.4,5.4c-8.7,6.2-17.4,12.5-26.2,18.5c-6.4,4.3-13,8.2-19.5,12.3c-0.8,0.5-1.7,0.9-2.5,1.3
		c-2.4-1.7-3.2-3.7-2.9-6.5c1-11,7.9-18.2,16.8-20.4c8.1-2,15.9-5.1,23.9-7.5c4.4-1.3,9-2.3,13.6-3.3
		C403.43,332.53,404.03,332.73,405.13,332.93z M303.53,328.13c1.3,0,2.3-0.2,3.1,0c1,0.3,2.1,0.8,3,1.4c5.7,3.6,10.7,8,14.9,13.1
		c-2.6,6.2-6.9,9.5-13.6,10.2C306.63,345.33,302.63,337.73,303.53,328.13z M320.73,374.83c-2-1.1-3.2-1.7-4.4-2.3
		c0.3-2.5,1.4-3.5,4.1-2.9C320.53,371.03,320.63,372.53,320.73,374.83z M307.43,363.13c3.4,4.1,5.5,8.6,6.7,13.6
		c0.7,2.8,1,5.7,0.8,8.5c-0.3,4.4-2.4,8-6.9,10.4c-3.5-8.2-7-16.1-10.5-24.3C300.53,368.23,303.13,364.93,307.43,363.13z
		 M306.13,415.63c0.8-3,0.9-6.2,1.2-9.4c0.2-1.7,0.1-3.5,1.9-4.9c1.4,1.1,1.5,2.6,1.5,4c0.1,5.3,3,8.6,7.5,10.9
		c2.4,1.2,5.2,1.9,6.9,4.5c-1.1,1.7-4.1,1.7-3.8,4.5c6.4,9.1,19,8.5,25.2-1.7c-1.7-2.2-3.4-4.6-5.3-6.9c-1.1-1.4-2.5-2.6-3.5-4
		c-2.8-3.8-2.8-7-0.3-11c2.1-3.3,3.2-6.8,2-10.6c-0.6-2.1-0.1-3.5,1.4-4.7c1.7-1.4,3.4-2.8,5.2-4c15-10.3,29.9-20.5,44.9-30.7
		c3.9-2.6,7.9-4.9,12.1-7c3.7-1.9,5.2-1.3,6.8,2.4c0.9,2.2,1.3,4.8,1.4,7.2c0,1.3-1,2.8-2,3.8c-1.5,1.6-3.3,2.9-5.1,4.2
		c-9.9,7.3-15.7,17.4-17.8,29.2c-3.7,20.1,2.4,37.1,18,50.6c5.4,4.7,11.8,7.4,18.8,9c1.6,0.3,3.2,0.8,4.7,1.2c0,0.3,0,0.6-0.1,0.9
		c-53.1,0-106.3,0-160.1,0c1.4-0.6,2.4-1,3.4-1.3C290.03,446.83,301.13,434.13,306.13,415.63z M285.53,385.93
		c3.9,2.9,4.7,7,4.8,11.7c-7.8,1.4-14.9,0.8-21.9-3.3c3.9-3.7,8-6.8,12.6-9.2C282.63,384.23,284.13,384.93,285.53,385.93z
		 M220.83,399.23c0.8-8.9,5.2-16.1,12-21.8c9-7.6,19.3-10.9,31-9c6.5,1.1,12.7,5.2,15.7,10.3c-0.6,2.1-1.7,3.4-4.1,4
		c-1.9,0.4-3.7,1.7-5.3,2.9c-2.8,2.2-5.3,4.8-7.9,7.2c-2,1.9-4.3,3.3-7.1,4c-2.4,0.6-4.6,1.7-7,2.6c-0.3,2.4-0.8,4.5-0.8,6.7
		c0,2.5-1.2,3.7-3.5,4.3c-1.9,0.5-3.8,1.2-5.7,2.6c0.6,0.1,1.1,0.4,1.7,0.3c8.7-1.2,17.4-2.4,26.1-3.7c2.7-0.4,5.4-1.1,8-1.7
		c2.4-0.5,4.8-1,7.2-1.6c3.1-0.9,6.2-1.9,9.6-2.9c0.1,0.6,0.3,1.5,0.3,2.4c-0.7,15.6-12.1,28.8-27.4,32
		C238.53,442.93,218.83,422.33,220.83,399.23z"/>
	<path d="M594.73,602.13c1.7,4.7,0.4,8.9-2.5,12.7c-1.2,1.6-2.8,3.1-4,4.8c-0.8,1.1-1.3,2.5-2.2,4.4c27.2,0,53.7,0,80.6,0
		c0.8-2.3,0.2-4.2-1.6-5.2c-4.1-2.3-5.6-5.9-5.9-10.2c-0.2-2.3-0.4-4.7-0.4-7c0-13.9,0-27.8,0.1-41.7c0-12.8,0.1-25.6,0.1-38.3
		c0-1.6,0.3-3.1,0.6-5.5c1.5,1.2,2.4,1.8,3,2.5c1.7,2,3.3,4,4.8,6.2c14.9,20.8,29.8,41.5,44.6,62.4c3.6,5.1,6.3,10.6,7.8,16.7
		c1.1,4.5,0.3,8.4-2.7,11.9c-1.1,1.2-2.3,2.4-3.3,3.7c-1,1.2-2.3,2.4-1.4,4.7c9.4,0,18.9,0,28.3-0.1c1.3,0,2.5-0.7,3.6-1.1
		c0.5-2.8-1-4.1-2.8-4.9c-2.8-1.1-4.1-3.2-4.4-6c-0.6-4.9-1.2-9.8-1.3-14.7c-0.2-16.8-0.4-33.5-0.3-50.3c0.1-12.8,0.5-25.5,0.8-38.3
		c0.1-5.7,1.4-10.9,6.9-14c1.7-0.9,1.5-2.4,0.7-4.3c-10.4-2.4-21-1.6-31.5-0.2c-1.2,3.2,0.7,4.4,2.7,5.4c3.9,1.9,5.7,5.1,5.8,9.3
		c0.3,8.5,0.5,17,0.6,25.5c0,2.8-0.6,5.6-1,9.1c-1.2-1.3-1.9-1.8-2.4-2.6c-6.7-10.1-13.4-20.1-20.1-30.2c-0.6-0.9-1.1-1.9-1.5-2.9
		c-1.2-2.9-1.4-5.5,1.1-8c1.4-1.4,2.3-3,2-5.6c-6.9-1-13.9-0.1-20.8-0.2c-7.1-0.2-14.3-0.1-21.4,0c-6.9,0.1-13.9-0.6-20.8,0.1
		c-0.9,2.8,0.1,4.3,2.2,5.3c2.4,1.1,3.9,3,4.5,5.6c0.4,2.1,0.9,4.3,0.9,6.5c0.3,8.4,0.6,16.7,0.7,25.1c0.3,20.3,0.5,40.7-0.6,61
		c-0.3,6.3-0.9,12.6-2.4,18.7c-0.3,1.3-0.5,2.7-2.3,3.3c-2-0.9-2.9-2.8-3.6-4.7c-2.7-7.2-5.6-14.3-7.7-21.7
		c-2.9-10-5.1-20.2-7.9-30.3c-3.4-12.6-7.3-25-10.7-37.6c-1.8-6.6-3.3-13.3-4.9-20c-0.5-2-0.2-3.8,1.3-5.3c1.3-1.2,2.8-2.5,1.9-4.6
		c-1-2.1-3.1-1.5-4.8-1.5c-13.7-0.1-27.5-0.2-41.2-0.3c-0.8,0-1.6,0.2-2.4,0.3c-0.6,2.5-0.6,4.6,1.2,6.3c1.3,1.2,1.4,2.6,1,4.1
		c-0.3,1.1-0.3,2.2-0.7,3.2c-4.6,14.8-9.2,29.6-14,44.3c-3.4,10.4-7.4,20.7-10.9,31.1c-2.2,6.6-3.9,13.4-6,20.1
		c-0.9,2.8-1.4,5.9-4.1,7.9c-2.4-0.7-3.1-2.4-3.7-4.5c-2.7-10.7-7.2-20.7-12.7-30.3c-3.9-6.6-7.8-13.3-11.6-20
		c-1.1-1.9-1.9-3.9-2.9-6.1c1.9-1.7,3.6-3.3,5.4-4.8c2.5-2.1,5.3-4,7.7-6.2c7.4-6.6,11-14.9,11-24.8c-0.1-10-7.5-18.7-17.5-19.7
		c-8.9-0.9-17.8-1.4-26.7-1.5c-17.7-0.2-35.5-0.1-53.2,0c-3.1,0-6.2,0.5-9.7,0.9c0.1,1.7,0.2,3,0.3,4.1c4.9,2.1,6.6,4.2,7.2,8.5
		c0.3,2,0.5,4.1,0.6,6.1c0.3,12.5,0.7,25,0.8,37.5c0.1,9.8-0.3,19.5-0.5,29.3c-0.2,10.6-0.7,21.1-0.8,31.7c-0.1,5.1-1.6,9-6.4,11.5
		c-2.4,1.2-2.4,2-0.7,4.9c6.6,0.8,48.4,0.6,50.9-0.2c0.8-2.9-0.5-4.8-3.2-5.8c-2.8-1-4.1-3.1-4.5-5.8c-0.5-3.3-1-6.5-1.1-9.8
		c-0.2-4-0.1-8-0.2-12c-0.1-5.1-0.4-10.1-0.3-15.2c0-2.9,0.4-5.8,1-8.6c0.8-3.7,2.2-4.4,6.5-4.2c0.9,1.5,1.9,3.1,2.9,4.7
		c6.5,10.2,11.5,21.2,16.6,32.2c2.2,4.8,3.6,9.8,3.6,15.1c0,2.1-0.8,3.6-2.9,4.5c-3.1,1.3-3,1.4-2.2,5.2c1.2,0.1,2.6,0.4,3.9,0.4
		c19,0.2,37.9,0.4,56.9,0.5c3.8,0,7.6-0.6,11.3-0.8c0-3.6,0-4.3-2.3-5.7c-3.8-2.3-4.7-5.4-4.1-9.4c0.3-1.9,0.1-3.9,0.6-5.7
		c1.6-6.5,3.3-13,5-19.5c1-3.5,2.1-7,3.1-10.5c6.3-0.7,12.1,0,17.6,2.5C583.53,581.03,590.43,590.43,594.73,602.13z M482.93,521.23
		c-0.3,4-1.9,7.7-4.2,11c-4.6,6.6-10.6,11.4-18,14.6c-1.5,0.6-3.1,1-5.5,1.7c-0.1-2.6-0.3-4.4-0.2-6.3c0.2-8.6,0.5-17.3,0.7-25.9
		c0-1.6,0-3.3,0.1-4.9c0.1-1.8,0.7-3.6,2.3-4.6c4.3-2.8,9-4.2,14.1-2.7C480.03,506.23,483.73,512.23,482.93,521.23z M581.83,562.63
		c-7-2.9-13.9-5.7-21.2-8.7c3.1-11.5,6.3-22.5,10.2-33.8C575.13,525.13,583.23,556.53,581.83,562.63z"/>
	<path d="M1081.43,572.93c-2.4-3.8-4.6-7.8-7.1-12.1c1.3-1.2,2.1-2.1,3-2.9c4.3-3.4,8.8-6.5,13-10.1c11.6-10,17.4-22.4,14.8-38
		c-1.7-9.8-8.4-16.9-18.1-19.1c-9.3-2.1-18.8-2.6-28.2-3.1c-11.9-0.6-23.9-0.7-35.8-0.9c-6.7-0.1-13.4,0.3-20.2,0.4
		c-8.2,0.1-16.5,0.1-24.7,0.4c-3.1,0.1-6.2,0.6-9.1,0.9c-1.1,3.5,0.1,5.5,2.8,6.8c4.3,2.1,6.7,5.6,7.3,10.3c0.4,3.1,0.7,6.3,0.7,9.4
		c0.1,31.5,0.4,62.9,0.2,94.4c-0.1,11.2-1,22.5-1.7,33.7c-0.2,3.6-2,6.5-5,8.6c-1.4,0.9-2.8,1.8-4.2,2.6c-1.5,0.9-2.6,2.1-2.1,4
		s2.1,1.9,3.6,2c6.6,0.2,13.2,0.7,19.8,0.6c14.1-0.1,28.3-0.4,42.4-0.7c0.9,0,1.8-0.3,2.7-0.5c0-1.8,0-3.2,0-4.9
		c-1.7-1-3.3-2.1-4.9-3c-3.9-2.3-6.3-5.6-6.6-10.3c-0.2-3.5-0.6-7.1-0.7-10.7c-0.2-5.9-0.4-11.8-0.5-17.7
		c-0.1-7.8-1.3-15.6-0.4-23.4c0.7-5.4,3.5-8.5,9-9.4c0.9,1.2,2.1,2.4,2.9,3.8c4.5,7.7,9.3,15.3,13.4,23.2
		c6.5,12.4,12.2,25.2,14.3,39.3c0.5,3.7,0.3,4.2-2.9,5.8c-0.6,0.3-1.3,0.5-1.9,0.8c-3.1,1.6-3.5,2.9-2.2,6.9c23.4,0,46.8,0,70.5,0
		c0-1.7,0-3.2,0-4.6c-0.7-0.4-1.1-0.7-1.6-0.9c-5.2-1.5-8.1-5.4-9.9-10.2c-1.9-5-3.8-10-5.6-15c-3.1-8.2-5.7-16.6-9.3-24.6
		C1094.23,593.83,1088.03,583.23,1081.43,572.93z M1052.93,543.33c-5.9,9.1-13.8,15.9-24.3,19.4c-1.3,0.4-2.8,0.5-4.7,0.8
		c-0.1-2-0.3-3.5-0.3-4.9c0-12.2-0.1-24.4,0-36.7c0-3,0.7-6,1.6-8.8c1.2-3.8,4.2-6.3,8.1-6.8c6-0.8,12.1-0.6,17.6,2.4
		c5.2,2.9,7.9,7.4,8.4,13.3C1060.03,530.03,1057.13,536.93,1052.93,543.33z"/>
	<path d="M273.83,635.03c-5.1,4.2-10.9,6.5-17.6,7.1c-10,0.8-19.4-1-28.1-6c-3.3-1.9-6.1-4.6-8.7-7.4c-5.1-5.6-8-12.4-10.4-19.5
		c-0.7-1.9-1.4-3.8-2.1-5.8c-2.2,0-4.2,0-6.2,0c-1.5,18.9-2.9,37.4-4.4,56.6c2.7-1.2,4.9-2.1,6.9-3.1c2.7-1.4,5.5-1.5,8.4-1.1
		c11.4,1.7,22.8,3.5,34.2,5c12,1.5,23.9,0.5,35.5-2.9c14-4.1,25.7-11.7,33.9-24.1c9.2-13.9,11.4-29.3,8.2-45.4
		c-2.4-12.4-9.2-22-20.7-27.7c-5.8-2.9-11.7-5.5-17.7-7.9c-10.9-4.2-21.9-8.1-32.8-12.2c-4-1.5-7.8-3.7-10.7-6.8
		c-1.4-1.6-2.8-3.5-3.4-5.5c-2.2-7-0.5-13.3,4.6-18.6c7.7-8.2,22.3-11.7,34.6-4.8c8.8,5,16.5,11.3,22.4,19.7
		c0.6,0.8,1.4,1.5,2.5,2.7c2.5-13.3,4.9-25.9,7.3-38.6c-2.2-0.7-4,0.3-5.6,1.3c-2.4,1.4-4.6,1.2-7.1,0.2c-3.3-1.3-6.7-2.4-10.1-3.5
		c-9.9-3.1-20.1-4.3-30.4-4.6c-7.7-0.2-15.4,0.8-22.8,2.6c-5.2,1.3-10.2,3.4-14.6,6.4c-17.1,11.6-25.8,33.9-21.3,54.3
		c4.5,20.1,17,33.1,36.2,39.9c5.8,2,11.9,3.3,17.8,5.2c5.9,1.8,11.8,3.6,17.5,6c6,2.5,10.9,6.6,12.5,13.3c0.6,2.6,0.7,5.4,0.7,8.2
		C281.93,624.73,279.23,630.53,273.83,635.03z"/>
	<path d="M561.53,683.33c0-4.3,0.9-8.7,1.6-13c0.4-2.4,1.7-4.3,4.3-5c2.8-0.8,3.3-2.9,3-5.4c-3-0.9-49.7-1-53.5-0.1
		c-0.1,2.6,0.9,4.5,3.6,5.2c3.1,0.8,4.3,3.1,4.9,6c1.4,7.2,1,14.5,0.7,21.7c0,0.2-0.3,0.4-0.6,0.9c-10.8,0-21.7,0-32.7,0
		c-0.3-0.7-0.7-1.3-0.7-2c0-4.8-0.2-9.6,0.2-14.4c0.5-5.2,1.6-10.3,7.4-12.8c1.7-0.7,2.8-2.6,1.8-5.2c-1.2,0-2.4,0-3.6,0
		c-4.8,0.2-9.6,0.4-14.4,0.5c-10,0.2-20.1,0.2-30.1,0.3c-1.6,0-3.1,0.5-4.7,0.7c-0.1,2.6,1.3,4,3.1,4.3c3.2,0.5,3.9,2.8,4.2,5.3
		c0.5,4.5,0.8,9,1,13.5c0.3,7.7,0.5,15.4,0.6,23.1c0.2,21.7,0.9,43.4-0.6,65.1c-0.4,5.2-1.3,10.1-6.5,13c-1.6,0.9-2.3,2.7-1.1,5.1
		c17,0,34.1,0,51.3,0c1.1-3.7,0.6-5.9-2-6.1c-3.9-0.4-5-3.1-5.7-6.1c-0.6-2.7-0.9-5.4-0.9-8.2c-0.1-19.7,0-39.3,0-59
		c0-1,0.3-2.1,0.4-3c0.8-0.2,1.1-0.3,1.5-0.3c9.8,0,19.5,0,29.3,0c0.9,0,1.8,0.5,3,0.8c0,1.8,0,3.4,0,5.1c0,17,0.1,34.1,0.1,51.1
		c0,2.9,0,5.8-0.1,8.7c-0.3,5.4-1.8,10-7.4,12.2c-1,0.4-1.7,1.5-2.5,2.3c1.4,2.7,3.5,2.5,5.6,2.5c11.8,0,23.6,0,35.5,0
		c3.4,0,6.9-0.1,10.3-0.2c1.7,0,2.9-0.7,2.6-2.5c-1.8-1.6-3.6-2.9-5-4.5c-3.1-3.5-3.8-7.9-3.9-12.3c-0.2-5.6-0.1-11.2-0.1-16.8
		C561.33,730.33,561.33,706.83,561.53,683.33z"/>
	<path d="M868.93,710.13c-0.9-0.2-1.8-0.6-2.7-0.6c-7.5-0.3-15.1-0.8-22.6-0.8c-7.4,0-14.8,0.4-22.2,0.8c-1.7,0.1-3.4,0.7-5.3,1.1
		c0.7,2.4,1.2,4.2,3.7,4.2s3.8,1.6,4.3,3.7c0.7,2.8,1.5,5.6,1.6,8.5c0.2,13.1,0.7,26.1-0.8,39.1c-0.8,7.1-5.8,11.4-12.9,10.9
		c-9-0.6-16.4-4.6-22-11.5c-6-7.4-9.8-15.9-11.6-25.2c-2-10.1-3.1-20.3-1.7-30.7c1.3-9.2,3.5-18,8.1-26.2
		c5.6-9.7,15.7-17.7,30.7-14.9c8.6,1.5,16,5,21.5,11.8c3.1,3.8,5.6,8.1,8.4,12.2c1.2,1.8,2.2,3.7,4.7,4.9c0.1-2.1,0.3-3.9,0.3-5.7
		c0.3-8.3-1.1-16.4-2.2-24.6c-0.6-4.5-1.1-8.9-1.7-13.7c-1.3,0.5-2.5,0.9-3.5,1.4c-3.7,2-7.6,2.1-11.6,1.6c-2-0.2-4.1-0.7-6.1-1.1
		c-9.5-1.7-18.9-3.1-28.6-3c-11.4,0.1-22,2.9-31.7,9c-6.8,4.3-12.9,9.3-16.2,17.1c-2.2,5.3-3.1,10.8-3.1,16.5
		c0,17.1,0,34.1,0.1,51.2c0,1.6,0.1,3.3,0.7,4.9c1.2,3.3,2.4,6.7,4.2,9.8c6.5,11.3,15.2,20.2,27.6,24.9c7.8,3,16.1,3.9,24.3,4.1
		c19.7,0.4,39.3,0.2,59,0.2c1.4,0,2.8-0.5,4.2-0.8c0.2-3.2-1.3-4.9-3.4-6.1c-2.1-1.3-3-3.1-3.1-5.5c-0.2-2.9-0.5-5.8-0.6-8.6
		c-0.1-12.5-0.3-25-0.3-37.5c0-2.9,0.4-5.8,1-8.6c0.8-3.7,2.6-6.9,6.7-8.1C868.13,714.13,869.43,712.83,868.93,710.13z"/>
	<path d="M855.73,555.33c0.6-2.9,2.1-5,4.9-6.3c1.8-0.8,2.7-2.2,3.4-3.6c-0.7-2-2.2-1.8-3.5-1.8c-15,0-30,0-45,0.1
		c-1.2,0-2.5,0.6-3.8,0.9c0.4,3.3,2.3,4.3,4.1,5.1c2.5,1.2,3.8,3.2,4.1,5.8c0.4,3,0.9,6,0.9,9c0.1,9.1,0.2,18.2-0.1,27.2
		c-0.1,3.8-0.8,7.7-1.9,11.3c-1.9,5.8-5.8,8.2-11.8,8.4c-6,0.1-11.3-1.9-16.1-5.4c-5.8-4.3-9.6-10.1-12.6-16.5
		c-4.1-8.7-5.8-17.9-6.8-27.4c-1.3-12.9,0.3-25.5,4.6-37.7c2.1-5.9,5.3-11.2,9.8-15.6c6.1-6,13.5-8.1,21.9-6.8
		c12,1.8,21.8,7.1,28.3,17.7c2,3.3,3.9,6.6,5.9,9.9c0.5,0.8,1.3,1.5,2,2.2c0.3-0.1,0.6-0.2,0.9-0.3c0.1-1.4,0.4-2.9,0.2-4.3
		c-0.6-7-1.3-13.9-1.9-20.9c-0.4-4.6-0.9-9.3-1.4-13.9c-0.2-1.7-0.2-3.5-1.7-5c-1,0.5-1.9,0.9-2.6,1.4c-2.9,2-6.1,2.4-9.5,1.9
		c-3.8-0.6-7.6-1.3-11.4-1.9c-10.7-1.8-21.3-3.7-32.3-2.2c-11.9,1.7-22.5,6-31.7,13.7c-6.5,5.4-10.6,12.5-11.9,21
		c-1.4,9.4-0.6,18.9-0.5,28.4c0.1,7,0.8,14.1,0.1,21c-0.9,9,0.8,17.2,5.5,24.8c4.2,6.7,8.8,12.9,15.3,17.6
		c9.9,7.2,21.2,10.1,33.2,11c6,0.5,12.1,0.3,18.1,0.3c6.9,0,13.7-0.2,20.6-0.3c5.6-0.1,11.2-0.1,16.8,0c3.5,0.1,7,0.5,10.6,0.7
		c1-3.2,0-5.5-2.4-7c-3.3-2.1-4.3-5.2-4.5-8.7c-0.3-4.1-0.7-8.2-0.7-12.3c0.1-9.9,0.2-19.8,0.7-29.6
		C853.83,563.03,854.93,559.13,855.73,555.33z"/>
	<path d="M956.03,715.23c-3.3-1.9-6.9-3.5-10.4-4.8c-5.4-2.1-10.9-3.9-16.3-5.7c-5-1.7-9.8-3.6-13.9-7c-5.4-4.5-6.8-12.5-3.4-18.7
		c3.5-6.4,11-8.7,17.8-7.6c9.1,1.5,16.3,6.4,21.6,13.9c2,2.8,3.4,6,5,9c0.8,1.6,1.5,3.3,3.7,3.2c2.3-2,1.6-4.6,1.4-7
		c-0.7-8.3-1.5-16.7-2.4-25c-0.3-2.8-0.7-5.7-1-8.6c-0.6-0.1-0.8-0.2-0.9-0.2c-0.4,0.1-0.8,0.1-1.2,0.3c-5.3,2.8-10.8,2.4-16.4,0.8
		c-7.9-2.2-16-2.8-24.1-2.1c-14.6,1.2-26.7,7.3-35,19.6c-7.4,10.8-9.7,22.7-5.6,35.3c3.6,11,11.5,18.2,22.2,22.3
		c5.5,2.1,11.1,3.9,16.7,5.9c5.2,1.8,10.4,3.5,15,6.8c3.5,2.5,6.2,5.7,6.7,10c0.9,7.2-1.6,14.5-8.8,19.1c-6.1,3.8-12.8,4.3-19.5,3
		c-12-2.4-21.7-8.8-27.8-19.5c-3-5.2-4.7-11.1-6.7-16.7c-0.7-1.8-1.3-2.8-3.6-2.5c0.5,8.9,0.8,17.6,1.7,26.3s0.8,17.4,2.2,26.3
		c5.1-1.8,9.9-2,14.7-1.4c5.4,0.7,10.8,1.9,16.2,2.6c7.8,1,15.5,1.8,23.4,0.6c11.2-1.6,21.3-5.4,29.9-12.7
		c10.5-8.9,17.6-19.7,17-34.1C973.43,733.13,968.03,722.13,956.03,715.23z"/>
	<path d="M873.13,609.03c-0.1,5-2.5,8.2-7,10.1c-0.2,0.1-0.3,0.4-0.6,0.7c0,1.5,0,3,0,4.9c2.5-0.2,4.7-0.6,6.8-0.7
		c9.1-0.3,18.1-0.6,27.2-0.7c7.1,0,14.3,0.3,21.4,0.6c11.5,0.5,23,1.1,34.5,1.6c1.5,0.1,3,0,4.7,0c1.2-4,2.3-8,3.4-11.9
		c2.7-9.5,5.5-19,8.2-28.5c0.9-3.3,1.1-6.6,0-11.1c-1.2,2.2-2.1,3.5-2.7,4.9c-2.3,5.8-5.7,11-9.7,15.7c-7.1,8.3-15.6,14.2-26.2,16.9
		c-12.1,3.1-20.3-3.3-22.6-14.2c-0.7-3.2-0.9-6.5-1-9.8c-0.1-11.4-0.1-22.8-0.1-34.2c0-1.5,0.3-3,0.6-4.5c0.3-1.4,1.1-2.2,2.5-2.3
		c5.9-0.5,11.8-0.5,17.4,2c6.4,2.8,10.3,8,12.6,14.5c0.6,1.7,0.9,3.5,3.3,4.1c2.2-6.9-2.7-42.7-6.7-48.9c-2,2-2.2,4.7-2.9,7.1
		c-1.2,3.8-3.6,6.4-7.6,6.6c-5.6,0.3-11.3,0.1-16.9,0c-0.3,0-0.7-0.4-1.1-0.7c-0.1-0.5-0.4-1-0.3-1.5c0.2-6.4,0.3-12.9,0.8-19.3
		c0.3-4.2,3.6-7.1,7.9-7.8c4-0.6,7.9-0.7,11.9,0.1c10.5,1.9,19.2,6.5,24.6,16.1c1.9,3.3,3.5,6.9,5.2,10.3c0.7,1.4,1.5,2.8,2.4,4.5
		c2.3-1.9,2.6-4,2.2-6.2c-0.5-3-1.2-5.9-1.7-8.9c-1.9-9.7-5-19.1-4.9-29.1c0-0.2-0.2-0.5-0.5-0.9c-0.9-0.1-2-0.2-3.1-0.2
		c-6.6,0.2-13.2,0.6-19.8,0.7c-13.7,0.3-27.5,0.6-41.2,0.7c-7.6,0.1-15.1,0-22.7,0c-1.7,0-3.5,0.2-5,0.4c-1,2.7-0.1,4.2,2,5.1
		c3.5,1.5,5,3.9,5,8c0,12.8,0.8,25.5,0.8,38.3c0,20.6-0.4,41.2-0.7,61.8C873.63,605.23,873.13,607.13,873.13,609.03z"/>
	<path d="M744.93,784.03c-2.3-0.7-3.3-2.4-3.7-4.5c-0.6-3.5-1.5-7-1.5-10.6c-0.1-30.2-0.2-60.5-0.1-90.7c0-5.4,1.8-10.3,6.3-13.8
		c1.3-1,2.6-2.1,2.6-3.9c-3.1-1.8-6.5-1.3-9.8-1.7c-6.7-1-13.4-0.4-20.1,0.4c-1,0.1-1.9,0.8-2.7,1.2c0.1,2.8,2,3.7,3.6,4.6
		c2.4,1.4,4,3.4,4.6,6c0.5,1.9,0.8,3.8,0.9,5.7c0.1,8.8,0,17.6,0,26.4c0,0.8-0.4,1.7-0.8,3c-1.2-1.1-2.1-1.7-2.8-2.5
		c-7.8-9.3-14.5-19.3-20.4-29.9c-1.9-3.4-2.3-6.3,0.6-9.3c1.2-1.3,2.1-2.9,1.2-4.8c-3.9-0.8-60.6-0.7-63.3,0.1
		c-0.8,2.4,0.1,4,2.4,4.8c3.2,1.1,4.4,3.6,4.7,6.7c0.3,3.1,0.6,6.3,0.8,9.4c0.3,7.5,0.6,15.1,0.7,22.6c0.2,20.9,0.8,41.8-0.7,62.6
		c-0.3,4.1-1,8.2-1.7,12.2c-0.5,2.7-1.7,5.1-4.4,6.6c-1.2,0.7-2,2-3.5,3.6c2.1,0.7,3.5,1.5,4.8,1.6c7.8,0.1,15.7,0.1,23.5,0
		c1.2,0,2.5-0.8,4.1-1.3c-1.7-3.5-1.6-3.6-4.2-5.2c-1.9-1.2-3-2.7-3.2-5c-0.3-4.1-0.8-8.2-0.8-12.3c0-25.2,0-50.3,0-75.5
		c0-1.2,0-2.5,0.1-3.7c0.1-0.6,0.4-1.2,0.9-2.3c1,1.1,1.8,1.8,2.4,2.6c1.4,1.9,2.6,3.9,4,5.7c10,12.9,20.1,25.8,30,38.8
		c7.3,9.6,14.5,19.4,20,30.2c1.8,3.6,3.3,7.3,3.5,11.3c0.2,4.6-0.4,9.1-5.2,11.6c-1.3,0.7-2.6,1.7-2.4,3.5c1.2,1.9,3.1,1.7,4.8,1.7
		c8,0,15.9-0.1,23.9-0.1c1.2,0,2.4-0.2,3.6-0.3C748.03,786.93,747.33,784.83,744.93,784.03z"/>
	<path d="M351.23,651.63c-2.6,7.3-3.7,14.6-4.9,21.8c-1.2,7.3-2.9,14.5-2.3,22.5c3.1-1.9,3.9-4.7,5.2-7c2-3.7,3.6-7.8,6.2-11.1
		c5.5-7.2,12.9-10.2,22.5-8.9c0,1.8,0,3.4,0,5c0,25.2,0,50.3,0,75.5c0,5.5,0.4,11,0.4,16.5c0,2.6-0.1,5.2-0.6,7.8c-1,4.9-4,8-9,9.1
		c-2.8,0.6-4.9,1.7-4.9,4.9c1.4,1.8,3.3,1.4,5.1,1.4c9.6-0.1,19.2-0.4,28.8-0.5c6.7,0,13.4,0.4,20.2,0.4c2.8,0,5.7-0.3,8.1-2.3
		c-0.7-2-2.1-3-3.8-3.7c-5.4-2.1-7.7-6.4-8.4-11.7c-0.5-3.5-0.8-7.1-0.8-10.7c-0.3-15.9-0.6-31.9-0.7-47.8c0-8,0.4-15.9,0.5-23.9
		c0.1-5.6,0-11.3,0.1-16.9c0.1-3.8,1.2-4.8,4.8-3.9c3.4,0.8,6.9,2,10,3.5c5.9,2.9,9.8,7.9,12.9,13.5c1.6,2.9,2.8,6,4.2,8.9
		c0.5,1,0.8,2.4,3,2.3c-1.6-15.2-4.1-30.2-6.3-45.5C411.23,653.83,381.33,654.83,351.23,651.63z"/>
	<path d="M391.73,623.93c0-2.9-1-4.6-3.6-5c-5.1-0.8-7.3-4.5-8.8-8.8c-0.7-2-1-4.3-1-6.5c-0.1-31.6-0.1-63.2-0.1-94.9
		c0-1.3,0.2-2.6,0.3-4.2c7.7-0.3,13.9,2,19.1,7.1c5,5,9.4,10.4,11.5,17.3c0.4,1.5,0.8,3.3,3.5,3.5c1.1-7.8-0.7-15-2.1-22.3
		c-1.4-7.4-2.6-14.8-4-22.6c-30.4,3.2-60.7,4.6-91.2,0.2c-1.4,7.5-3,14.9-4.2,22.3c-1.2,7.3-3.1,14.6-2.4,22.5
		c3.2-1.2,3.7-3.6,4.4-5.9c3.3-9.7,10.1-16.2,19.1-20.5c3.1-1.4,6.4-2.4,10.4-1.2c0.2,1.7,0.5,3.4,0.5,5.1c0.1,30.8,0,61.6,0.2,92.4
		c0,7.7-2,13.8-10,16.5c-1.6,0.5-3,1.5-2.8,3.9c1,0.3,2.1,1,3.3,1.1C353.03,625.73,372.33,624.73,391.73,623.93z"/>
	<path d="M629.03,784.13c-3.4-1.1-4.3-3.6-4.8-6.5c-0.5-3.2-0.8-6.5-0.9-9.8c-0.3-14.7-0.6-29.4-0.6-44.1c0-14,0.3-28,0.6-42
		c0.1-3.1,0.3-6.3,0.8-9.4c0.6-3.5,1.8-6.6,5.6-7.9c2.4-0.8,2.5-1.6,2-5.2c-1.4-0.1-2.9-0.2-4.4-0.2c-9.2,0-18.4,0-27.6,0
		c-4.1,0-8.2-0.5-12.3-0.5c-3.1,0-6.2,0.3-9.2,1.9c0.4,2.6,1.8,3.9,3.4,4.5c3.2,1.4,4.4,4.1,4.9,7.1c0.7,4.2,1.3,8.4,1.4,12.6
		c0.2,26,0.2,51.9,0.2,77.9c0,3.7-0.3,7.4-0.9,11.1c-0.7,4.4-2.1,8.5-6.2,11.2c-1.5,1-2.8,2.6-2.5,5c1.4,0.1,2.6,0.2,3.8,0.2
		c13.3,0.1,26.7,0.1,40,0.2c2.5,0,5-0.1,7.4-0.3c0.9-0.1,1.8-0.8,3.3-1.6C631.33,786.53,630.43,784.63,629.03,784.13z"/>
	<path d="M1106.53,680.73c-6.6,0-13.1,0-19.7,0c-6.5,0-12.9,0-19.4,0c-6.6,0-13.2,0-19.8,0c-6.5,0-12.9,0-19.4,0
		c-6.6,0-13.2,0-19.8,0c-6.5,0-12.9,0-19.4,0s-13.1-0.1-19.7,0.1c0,4.2,0,7.8,0,11.3c5.5,0.8,153.9,0.6,156.8-0.2c0-3.5,0-7,0-11.2
		C1119.43,680.73,1113.03,680.73,1106.53,680.73z"/>
	<path d="M326.93,680.73c-11.9-0.3-23.9-0.8-35.8-0.8c-24.8,0-49.7,0.3-74.5,0.5c-5.4,0-10.7,0.1-16.1,0.3c-1,0-2.1,0.3-3.1,0.5
		c-0.3,3.3-0.7,6.3-1,9.3c0,0.5,0.1,1.1,0.3,2.1c1.6,0,2.8,0,4,0c41.6,0,83.2,0,124.8-0.1c2.3,0,4.6-0.4,7.4-0.7
		c-0.3-3.6-0.5-6.8-0.8-10.1C330.03,681.33,328.53,680.73,326.93,680.73z"/>
</g>
<rect x="155.03" y="125.33" class="st0" width="1012.7" height="704"/>
</svg>
